<svg width="13" height="12" viewBox="0 0 13 12" fill="none" xmlns="http://www.w3.org/2000/svg">
<path d="M1.84408 0.174754L1.92259 0.244078L6.33333 4.65417L10.7441 0.244078C11.0695 -0.0813592 11.5972 -0.0813592 11.9226 0.244078C12.223 0.544481 12.2461 1.01717 11.9919 1.34408L11.9226 1.42259L7.5125 5.83333L11.9226 10.2441C12.223 10.5445 12.2461 11.0172 11.9919 11.3441L11.9226 11.4226C11.6222 11.723 11.1495 11.7461 10.8226 11.4919L10.7441 11.4226L6.33333 7.0125L1.92259 11.4226C1.59715 11.748 1.06951 11.748 0.744078 11.4226C0.443674 11.1222 0.420566 10.6495 0.674754 10.3226L0.744078 10.2441L5.15417 5.83333L0.744078 1.42259C0.443674 1.12219 0.420566 0.649493 0.674754 0.322584L0.744078 0.244078C1.04448 -0.0563256 1.51717 -0.0794336 1.84408 0.174754Z" fill="black"/>
</svg>
