<svg width="20" height="20" viewBox="0 0 20 20" fill="none" xmlns="http://www.w3.org/2000/svg">
<path fill-rule="evenodd" clip-rule="evenodd" d="M10.0858 14.7153C10.0858 15.5106 9.44107 16.1553 8.64578 16.1553C7.85049 16.1553 7.20578 15.5106 7.20578 14.7153C7.20578 13.92 7.85049 13.2753 8.64578 13.2753C9.44107 13.2753 10.0858 13.92 10.0858 14.7153ZM15.8458 14.7153C15.8458 15.5106 15.2011 16.1553 14.4058 16.1553C13.6105 16.1553 12.9658 15.5106 12.9658 14.7153C12.9658 13.92 13.6105 13.2753 14.4058 13.2753C15.2011 13.2753 15.8458 13.92 15.8458 14.7153ZM18.2458 5.35531C18.2446 4.95815 17.9229 4.63647 17.5258 4.63531H6.01408L5.60235 3.64409C5.49209 3.38078 5.2371 3.20709 4.9517 3.20092C4.93072 3.19734 4.90948 3.19546 4.88819 3.19531H2.64578C2.24862 3.19647 1.92694 3.51815 1.92578 3.91531C1.92694 4.31248 2.24862 4.63415 2.64578 4.63531H4.21208C4.35903 4.63531 4.49153 4.72376 4.54789 4.85947L7.2557 11.3789C7.3624 11.6499 7.6219 11.8299 7.91315 11.835C7.9167 11.835 7.92023 11.8352 7.92378 11.8353H15.6265C15.635 11.8352 15.6436 11.8347 15.6521 11.8336C15.9682 11.8132 16.2339 11.5885 16.3066 11.2801L18.1727 5.67595C18.1744 5.67069 18.1759 5.66541 18.1775 5.66015C18.2225 5.56483 18.2458 5.46072 18.2458 5.35531ZM16.4208 6.37927L15.2066 10.0255C15.1331 10.2463 14.9265 10.3953 14.6938 10.3953H8.76732C8.54888 10.3953 8.3519 10.2638 8.26812 10.0621L6.74498 6.39488C6.71537 6.32361 6.72332 6.24227 6.76615 6.17808C6.80898 6.11389 6.88105 6.07533 6.95822 6.07531H16.2016C16.2758 6.07532 16.3456 6.111 16.389 6.17121C16.4324 6.23143 16.4442 6.30884 16.4208 6.37927Z" fill="white"/>
</svg>
