<svg width="18" height="14" viewBox="0 0 18 14" fill="none" xmlns="http://www.w3.org/2000/svg">
<path fill-rule="evenodd" clip-rule="evenodd" d="M5.94462 13.127C6.83572 12.828 7.44436 12.0427 7.49842 11.1014L7.50164 11.0458H11.4836C11.5143 11.2192 11.5334 11.3944 11.577 11.5634C11.8084 12.453 12.5605 13.1104 13.473 13.2206C13.473 13.2206 13.6137 13.2477 13.9661 13.2367C14.1297 13.2317 14.2895 13.1772 14.4445 13.1269C15.3384 12.8369 15.9442 12.0429 15.9983 11.1014C15.9993 11.085 16.0013 11.0686 16.0041 11.0385H18V7.09915C17.9849 7.04495 17.9714 6.99023 17.9545 6.93661C17.8233 6.52308 17.4402 6.24147 17.0063 6.23961C16.5398 6.23825 16.0733 6.23701 15.6068 6.24147C15.5256 6.24223 15.4834 6.21427 15.4431 6.14701C14.479 4.53624 13.5141 2.92589 12.5486 1.31597C12.3664 1.01071 12.1179 0.815274 11.7666 0.753534L11.7611 0.752534C11.716 0.74506 11.6704 0.740949 11.6247 0.740234H0V0.806394C7.92564e-05 0.883594 0.00908575 0.960524 0.02684 1.03565C0.03364 1.06453 0.04066 1.09335 0.04826 1.12201C0.218358 1.7778 0.809119 2.23653 1.4866 2.23889C3.31327 2.24253 5.13987 2.2432 6.9664 2.24089C7.25912 2.24089 7.47796 2.43175 7.49826 2.70223C7.50753 2.83512 7.4636 2.96624 7.37615 3.06673C7.2887 3.16721 7.16489 3.22881 7.032 3.23797C6.98884 3.24093 6.94538 3.23975 6.902 3.23975C4.81208 3.23975 2.72215 3.23975 0.63222 3.23975H0.48942C0.50942 3.37137 0.51772 3.49661 0.54818 3.61623C0.714554 4.27306 1.30386 4.73439 1.98142 4.73823C3.64468 4.74223 5.30796 4.73969 6.97124 4.74023C7.25766 4.74023 7.4746 4.92939 7.49804 5.19637C7.50876 5.33092 7.46488 5.46411 7.37629 5.56593C7.2877 5.66775 7.16185 5.72963 7.02712 5.73761C6.98394 5.74021 6.9405 5.73915 6.89712 5.73915C4.97385 5.73915 3.05059 5.73915 1.12732 5.73915H1.0024C0.998125 5.91475 1.02808 6.08951 1.0906 6.25365C1.30234 6.8428 1.86024 7.23637 2.48628 7.23823C3.97954 7.2418 5.47284 7.23959 6.96612 7.24001C7.21032 7.24001 7.39722 7.36475 7.47074 7.57455C7.52192 7.72177 7.50149 7.88443 7.41548 8.0144C7.32947 8.14438 7.18775 8.22678 7.03224 8.23721C6.9891 8.24021 6.94562 8.239 6.90224 8.239C5.64561 8.23908 4.38899 8.23908 3.13236 8.239H3V8.35019C3 9.23002 3.00005 10.1098 3.00014 10.9897C2.99943 12.1251 3.8461 13.0825 4.97306 13.2206C5.29983 13.263 5.63197 13.231 5.94462 13.127Z" fill="#666666"/>
</svg>
