<svg width="16" height="14" viewBox="0 0 16 14" fill="none" xmlns="http://www.w3.org/2000/svg">
<path fill-rule="evenodd" clip-rule="evenodd" d="M15.5 1.80003C15.5035 1.28305 15.1983 0.813838 14.7243 0.607424C14.2503 0.40101 13.6989 0.497182 13.3227 0.851866L13.3225 0.851626L5.67243 8.30003L3.15189 5.49299L3.15167 5.49327C2.63964 5.05089 1.87254 5.08038 1.39599 5.56077L0.878746 6.08077C0.412693 6.55024 0.371797 7.29423 0.783586 7.81197L0.783366 7.81213L4.92137 13.0121L4.92157 13.012C5.1659 13.3203 5.53772 13.5 5.9311 13.5C6.32447 13.5 6.69629 13.3203 6.94063 13.012L6.94085 13.0121L15.2167 2.61215L15.2165 2.61199C15.4005 2.3814 15.5005 2.09503 15.5 1.80003Z" fill="#666666"/>
</svg>
